<svg xmlns="http://www.w3.org/2000/svg" width="234" height="234" viewBox="0 0 39 39"><path d="M3 3h7v7h-7zM11 3h1v2h2v1h-1v1h1v1h-2v-2h-1zM13 3h1v1h-1zM15 3h3v1h-3zM20 3h3v2h-1v-1h-1v1h-3v-1h2zM26 3h2v4h-1v1h-1v-1h-1v-1h1v-1h1v-1h-1zM29 3h7v7h-7zM4 4v5h5v-5zM14 4h1v1h-1zM25 4h1v1h-1zM30 4v5h5v-5zM5 5h3v3h-3zM15 5h1v1h-1zM17 5h1v3h-1zM21 5h1v1h-1zM23 5h2v1h-1v1h1v1h1v2h1v1h-1v1h-1v-1h-2v-2h-1v-1h-1v-1h1v-1h1zM31 5h3v3h-3zM20 6h1v1h-1zM15 7h1v1h-1zM11 8h1v2h1v1h1v1h1v1h-1v1h2v-2h-1v-1h1v-1h1v1h1v-1h1v-1h1v2h-1v2h-1v2h-4v1h-1v-3h-3v-1h1zM16 8h1v1h-1zM18 8h1v1h-1zM20 8h1v1h-1zM13 9h1v1h-1zM15 9h1v1h-1zM17 9h1v1h-1zM21 9h1v2h-1zM24 9v1h1v-1zM27 9h1v1h-1zM14 10h1v1h-1zM5 11h3v2h-1v1h-2v1h2v1h-1v1h-1v-1h-1v1h-1v-3h1v-2h1v1h1v-1h-1zM9 11h1v1h-1zM27 11h4v1h-1v1h1v1h-2v-1h-1v-1h-1zM33 11h3v2h-1v-1h-2zM22 12h2v2h-1v-1h-1zM26 12h1v1h-1zM32 12h1v1h2v1h1v1h-1v1h-1v-1h-1v-1h-1zM8 13h2v1h-1v1h1v1h-2v-1h-1v-1h1zM19 13h1v1h1v1h-1v3h-1zM21 13h1v1h-1zM25 13h1v2h-1v1h-1v1h-1v-2h1v-1h1zM27 13h1v2h1v1h1v1h-2v1h1v2h1v1h-4v-1h2v-1h-5v2h-1v1h-1v-1h-2v-1h-1v1h-2v-2h1v-1h-1v-1h2v1h1v1h1v1h1v-1h-1v-1h1v-3h1v2h1v1h2v-1h1v1h1v-1h-1v-2h1zM10 14h1v1h-1zM30 15h2v1h-2zM11 16h2v2h1v-2h1v3h-1v1h-1v-1h-1v-2h-1zM32 16h2v1h-2zM35 16h1v1h-1zM4 17h1v1h-1zM6 17h1v1h-1zM9 17h2v2h-1v-1h-1zM30 17h1v1h-1zM34 17h1v2h-2v-1h1zM3 18h1v1h2v2h-3zM9 19h1v1h-1zM30 19h2v1h-2zM8 20h1v1h2v-1h2v1h1v1h-1v1h-1v-1h-1v1h-1v-1h-1v1h-1zM24 20h1v1h-1zM34 20h2v1h-1v1h1v3h-1v-1h-1v-1h-1v1h-3v-3h2v1h-1v1h1v-1h1v-1h1zM6 21h1v2h-1zM15 21h1v2h-1zM18 21h1v1h-1zM23 21h1v1h5v2h-2v-1h-1v1h-1v-1h-2v1h1v1h-2v-1h-2v-2h1v1h1v-1h1zM3 22h2v1h-1v1h1v-1h1v3h2v1h-1v1h-1v-1h-1v-2h-1v3h-1zM7 23h1v1h-1zM9 23h1v1h-1zM14 23h1v3h-1zM16 23h1v1h1v-1h1v2h1v3h-1v-2h-2v1h1v1h-3v2h-3v-1h-1v-1h-2v-1h2v-1h1v-1h-1v-1h2v2h1v1h1v-1h1zM26 24h1v1h-1zM29 24h1v1h-1zM8 25h2v1h-2zM21 25h1v1h-1zM25 25h1v1h-1zM27 25h1v1h-1zM30 25h1v1h-1zM32 25h3v1h1v3h-1v-1h-1v-1h-1v3h1v-1h1v1h1v3h-1v-1h-1v-1h-2v1h1v2h1v1h-1v1h-1v-3h-1v-1h-2v1h1v1h-1v2h-3v-1h2v-3h-1v-1h-1v-1h-1v-1h2v-1h-2v-1h1v-1h1v1h5zM22 26h1v2h-1zM24 26h1v1h-1zM12 27v1h1v-1zM18 28h1v1h-1zM28 28v3h3v-3zM3 29h7v7h-7zM16 29h2v1h-2zM19 29h3v1h1v-1h1v2h-1v2h-1v1h1v-1h1v-2h2v1h-1v1h1v1h-2v2h-1v-1h-2v1h-1v-2h1v-2h1v-1h-1v-1h-1v1h1v1h-1v2h-1v2h-2v-1h-1v-1h1v-2h1v-2h1zM29 29h1v1h-1zM4 30v5h5v-5zM5 31h3v3h-3zM11 31h1v1h4v1h-2v2h-1v1h-1v-2h-1zM30 34h1v1h-1zM14 35h1v1h-1zM34 35h1v1h-1z"/></svg>